# xmcd
# 
# Track frame offsets:
#     150
#     15175
#     31314
#     57077
#     71563
#     99115
#     112085
#     129327
#     154643
#     170244
#     192987
#     221005
#     237181
# 
# Disc length: 3782
# 
# Revision: 0
# Processed by: cddbd v1.5.2PL0 Copyright (c) Steve Scherf et al.
# Submitted via: fre:ac v1.0.27
# 
DISCID=a70ec40d
DTITLE=Irvin Blais - Les Incontournables
DYEAR=2016
DGENRE=Country
TTITLE0=La foère au camp
TTITLE1=Coeur de camionneur
TTITLE2=Mon père
TTITLE3=Chu ben soul
TTITLE4=L'chantier
TTITLE5=L'temps d'la chasse
TTITLE6=Gaspésie
TTITLE7=Ç'a pas d'bon sens
TTITLE8=Ta robe de mariée
TTITLE9=La 175 nord
TTITLE10=L'Bum (Mon p'tit gars)
TTITLE11=Toi chère
TTITLE12=L'Incontournable Medley
EXTD=
EXTT0=
EXTT1=
EXTT2=
EXTT3=
EXTT4=
EXTT5=
EXTT6=
EXTT7=
EXTT8=
EXTT9=
EXTT10=
EXTT11=
EXTT12=
PLAYORDER=
